<?xml version="1.0" encoding="UTF-8" standalone="no"?>
<svg
   xmlns:dc="http://purl.org/dc/elements/1.1/"
   xmlns:cc="http://creativecommons.org/ns#"
   xmlns:rdf="http://www.w3.org/1999/02/22-rdf-syntax-ns#"
   xmlns:svg="http://www.w3.org/2000/svg"
   xmlns="http://www.w3.org/2000/svg"
   viewBox="0 0 1061.3333 732"
   height="732"
   width="1061.3333"
   xml:space="preserve"
   id="svg2"
   version="1.1"><metadata
     id="metadata8"><rdf:RDF><cc:Work
         rdf:about=""><dc:format>image/svg+xml</dc:format><dc:type
           rdf:resource="http://purl.org/dc/dcmitype/StillImage" /></cc:Work></rdf:RDF></metadata><defs
     id="defs6"><clipPath
       id="clipPath18"
       clipPathUnits="userSpaceOnUse"><path
         id="path16"
         d="M 0,549 H 796 V 0 H 0 Z" /></clipPath></defs><g
     transform="matrix(1.3333333,0,0,-1.3333333,0,732)"
     id="g10"><g
       id="g12"><g
         clip-path="url(#clipPath18)"
         id="g14"><g
           transform="translate(640.6973,327.5215)"
           id="g20"><path
             id="path22"
             style="fill:#000000;fill-opacity:1;fill-rule:nonzero;stroke:none"
             d="m 0,0 c -3.809,0.707 -7.174,0.458 -9.438,1.917 -6.57,4.231 -13.536,3.73 -19.923,1.273 -12.961,-4.985 -24.992,-12.129 -34.646,-22.149 -9.937,-10.313 -17.727,-22.43 -23.079,-35.788 -6.309,-15.745 -11.114,-31.934 -9.482,-49.229 0.44,-4.669 -2.153,-4.793 -5.495,-4.898 -10.603,-0.336 -21.347,0.122 -31.759,-1.503 -9.912,-1.547 -19.647,-4.849 -29.149,-8.249 -10.36,-3.707 -20.275,-8.644 -30.57,-12.557 -3.434,-1.305 -7.438,-1.109 -11.479,-1.638 -2.328,10.255 2.169,18.268 4.612,26.615 5.304,18.121 10.98,36.139 15.873,54.368 1.543,5.746 1.344,12.027 1.426,18.07 0.05,3.645 1.214,5.89 4.248,8.012 4.929,3.45 9.494,7.452 14.027,11.431 8.418,7.388 18.939,11.815 31.825,4.627 22.753,-12.694 38.68,-9.587 57.493,12.691 11.379,13.475 16.477,30.264 22.201,46.588 2.774,7.912 2.61,8.098 11.252,7.949 8.002,-0.138 16.01,-0.446 23.99,-1.032 1.503,-0.111 3.825,-1.632 4.176,-2.932 C -9.24,36.306 -4.867,18.97 0,0 m -27.713,142.039 c 0.655,-0.227 1.31,-0.453 1.964,-0.679 2.976,-23.282 5.965,-46.563 8.9,-69.85 0.21,-1.67 0.028,-3.39 0.028,-5.031 h -31.464 c 7.11,26.115 13.842,50.837 20.572,75.56 m -206.844,-261.261 c -4.364,8.956 -3.191,17.639 -3.287,26.958 7.715,-5.705 9.153,-15.827 3.287,-26.958 M -106.1,-237.081 c -14.327,-3.205 -27.888,-5.918 -41.813,-4.272 9.601,9.486 36.231,12.1 41.813,4.272 m 16.689,-13.122 c -1.329,-12.171 -3.568,-24.242 -5.538,-36.338 -0.114,-0.69 -1.11,-1.237 -2.631,-2.831 -12.77,12.68 -25.393,25.216 -39.209,38.935 3.887,0.841 6.27,1.337 8.645,1.873 9.206,2.078 18.441,4.046 27.602,6.304 4.671,1.151 11.671,-3.006 11.131,-7.943 M 70.943,43.229 c -13.01,5.008 -25.937,10.43 -39.312,14.235 -10.756,3.06 -22.099,4.076 -33.196,5.906 -3.164,0.521 -5.721,1.082 -6.258,5.147 -1.95,14.757 -4.543,29.435 -6.242,44.218 -1.978,17.196 -3.255,34.471 -4.878,51.707 -0.241,2.547 -0.207,5.314 -3.947,5.59 -3.661,0.27 -4.846,-1.965 -5.71,-4.892 -4.696,-15.949 -9.542,-31.855 -14.145,-47.831 -4.487,-15.572 -8.642,-31.24 -13.247,-46.775 -0.501,-1.687 -2.947,-3.858 -4.619,-3.974 -17.055,-1.186 -34.137,-1.96 -51.207,-2.929 -3.92,-0.222 -8.959,0.893 -9.559,-5.077 -0.386,-3.849 3.299,-5.081 10.337,-4.559 14.677,1.089 29.37,1.965 44.064,2.801 2.214,0.126 4.467,-0.431 7.228,-0.73 -2.536,-6.912 -4.683,-12.977 -6.981,-18.984 -5.084,-13.288 -13.027,-24.773 -21.824,-35.876 -5.054,-6.38 -11.004,-10.297 -18.807,-9.011 -9.533,1.57 -19.002,4.027 -28.194,7.032 -11.495,3.758 -21.46,2.578 -30.784,-5.53 -5.472,-4.758 -11.732,-8.609 -16.258,-11.873 -5.087,3.748 -9.496,6.803 -13.65,10.171 -1.303,1.056 -2.537,2.872 -2.751,4.48 -1.077,8.125 -1.552,16.333 -2.728,24.441 -1.357,9.352 -2.789,18.792 -7.858,27.055 -2.381,3.881 -8.007,5.534 -11.201,2.999 -2.428,-1.926 -4.507,-4.819 -5.661,-7.713 -2.479,-6.214 -4.027,-12.793 -6.37,-19.068 -5.428,-14.533 -10.726,-29.139 -16.937,-43.338 -1.575,-3.6 -6.221,-7.686 -9.755,-7.984 -2.551,-0.216 -6.157,5.126 -8.319,8.595 -5.997,9.624 -5.768,21.048 -7.719,31.714 -1.812,9.903 -1.305,20.226 -1.894,30.359 -0.252,4.323 -0.49,8.664 -1.116,12.941 -0.617,4.214 -3.776,5.818 -7.547,5.025 -1.126,-0.237 -2.55,-3.18 -2.396,-4.74 1.718,-17.355 3.477,-34.714 5.73,-52.006 1.418,-10.883 2.444,-22.052 8.475,-31.681 7.698,-12.291 21.695,-12.513 29.777,-0.448 2.996,4.472 5.737,9.282 7.617,14.304 5.53,14.772 10.551,29.734 15.822,44.604 0.96,2.707 2.161,5.329 3.25,7.991 0.602,-0.009 1.206,-0.018 1.807,-0.027 1.026,-3.361 2.542,-6.659 2.986,-10.095 1.412,-10.939 2.129,-21.972 3.741,-32.877 0.63,-4.259 -0.598,-6.414 -4.103,-8.28 -6.646,-3.537 -11.541,-8.722 -15.402,-15.332 -6.214,-10.642 -9.545,-22.163 -12.11,-34.016 -1.463,-6.755 -2.771,-13.543 -4.176,-20.454 -15.441,-3.774 -27.166,-12.999 -37.335,-24.498 -12.36,-13.978 -21.385,-29.454 -20.892,-48.907 0.619,-24.404 7.955,-46.554 21.286,-67.101 13.967,-21.529 34.793,-30.519 58.773,-33.667 22.566,-2.964 44.975,0.957 67.322,3.736 4.31,0.536 7.43,-0.086 10.536,-3.104 15.54,-15.098 31.151,-30.124 46.919,-44.98 1.787,-1.684 5.178,-3.45 7.009,-2.817 1.941,0.671 3.55,3.998 4.17,6.451 1.481,5.857 2.403,11.865 3.349,17.844 1.137,7.191 2.066,14.415 3.162,22.171 1.942,-0.947 3.495,-1.563 4.906,-2.414 9.856,-5.946 19.383,-5.626 28.204,1.883 4.259,3.625 8.631,7.408 11.859,11.904 14.506,20.208 29.107,40.38 42.709,61.196 9.255,14.166 16.085,29.719 17.359,46.993 0.163,2.212 -1.369,6.075 -2.957,6.591 -4.044,1.316 -3.76,-2.64 -4.514,-5.273 -2.257,-7.87 -3.664,-16.216 -7.313,-23.405 -6.736,-13.27 -14.201,-26.274 -22.518,-38.61 -11.241,-16.676 -23.093,-32.999 -35.599,-48.746 -8.792,-11.068 -15.313,-11.002 -26.684,-2.533 -3.037,2.261 -4.603,4.758 -4.09,8.787 0.573,4.495 0.755,9.101 0.503,13.625 -0.429,7.664 -5.719,11.191 -14.113,9.085 0.812,-1.721 1.918,-3.235 2.217,-4.894 0.408,-2.273 1.136,-5.442 0.01,-6.776 -1.194,-1.414 -5.089,-2.301 -6.619,-1.402 -13.061,7.677 -26.36,6.665 -40.139,2.487 -11.142,-3.378 -22.346,-6.889 -34.311,-5.613 -1.445,0.154 -3.269,-0.035 -4.387,-0.819 -1.409,-0.989 -3.295,-2.891 -3.127,-4.152 0.235,-1.755 1.866,-3.96 3.486,-4.719 1.776,-0.833 4.219,-0.251 6.372,-0.267 1.941,-0.014 3.884,-0.002 5.825,-0.002 0.006,-0.765 0.011,-1.53 0.017,-2.294 -8.271,-0.976 -16.52,-2.413 -24.819,-2.811 -10.357,-0.497 -20.775,-0.56 -31.131,-0.062 -22.82,1.098 -41.897,9.579 -55.351,28.957 -13.071,18.825 -20.272,39.85 -21.797,62.403 -1.308,19.33 7.472,35.726 19.758,50.071 6.634,7.747 14.272,14.499 24.74,16.934 6.442,1.498 6.923,1.13 7.079,-5.671 0.269,-11.676 -0.002,-23.465 4.536,-34.535 0.774,-1.887 2.849,-4.054 4.67,-4.437 1.42,-0.299 4.025,1.579 4.996,3.166 6.194,10.122 9.056,21.36 6.819,32.942 -0.975,5.041 -5.549,9.362 -8.372,14.081 -1.218,2.037 -3.064,4.26 -3.048,6.386 0.13,17.203 4.549,33.382 13.299,48.175 2.455,4.149 6.149,7.693 9.756,10.988 2.357,2.152 4.907,2.59 7.454,-1.129 2.061,-3.008 5.499,-5.662 8.906,-7.01 4.281,-1.696 5.248,-4.242 5.436,-8.357 0.898,-19.578 -5.912,-37.382 -12.176,-55.365 -4.043,-11.61 -8.412,-23.18 -11.318,-35.089 -2.706,-11.083 3.731,-17.083 15.041,-15.099 4.649,0.816 9.265,2.276 13.653,4.044 12.216,4.923 24.192,10.451 36.469,15.206 16.616,6.435 34.06,5.222 51.362,4.448 3.078,-0.137 6.059,-1.858 9.159,-2.237 2.199,-0.269 4.523,0.49 6.792,0.79 -0.605,2.468 -0.995,5.019 -1.902,7.37 -0.465,1.206 -2.635,2.012 -2.697,3.074 -0.564,9.87 -3.08,20.336 -0.708,29.513 4.363,16.885 10.998,33.326 22.263,47.268 11.839,14.652 25.627,26.388 44.792,30.163 11.073,2.181 20.13,-4.947 19.735,-16.175 -0.549,-15.616 -8.875,-28.639 -15.318,-42.171 -3.022,-6.348 -7.721,-11.884 -11.49,-17.894 -2.596,-4.144 -5.01,-8.412 -7.307,-12.73 -3.531,-6.638 -7.625,-13.101 -10.159,-20.116 -4.013,-11.106 2.071,-20.246 13.843,-21.076 12.279,-0.866 21.547,7.262 33.253,10.817 -4.245,5.551 -8.061,3.347 -11.603,2.444 -5.836,-1.487 -11.541,-3.941 -17.451,-4.566 -8.546,-0.905 -12.43,3.863 -9.192,11.933 4.069,10.142 9.39,19.818 14.627,29.446 8.105,14.899 16.76,29.499 24.82,44.421 2.386,4.415 3.556,9.486 5.283,14.256 0.503,0.233 1.007,0.465 1.51,0.697 0.318,-0.782 0.534,-1.627 0.969,-2.338 3.817,-6.223 7.442,-12.582 11.6,-18.571 2.658,-3.83 6.281,-6.615 13.003,-3.371 C 23.489,-32.53 15.458,-16.334 8.648,0.576 1.691,17.854 -2.744,35.665 -5.106,55.64 9.6,53.532 23.221,52.532 36.344,49.431 c 13.151,-3.108 25.806,-8.314 38.679,-12.6 0.362,0.579 0.721,1.157 1.081,1.736 -1.706,1.592 -3.141,3.885 -5.161,4.662" /></g><g
           transform="translate(340.8848,271.1182)"
           id="g24"><path
             id="path26"
             style="fill:#000000;fill-opacity:1;fill-rule:nonzero;stroke:none"
             d="M 0,0 C 1.377,4.221 1.464,8.863 2.087,13.33 1.355,13.529 0.623,13.729 -0.108,13.929 -1.025,12.653 -1.865,11.313 -2.879,10.12 -3.992,8.812 -5.267,7.64 -6.471,6.408 c -0.982,1.507 -2.298,2.897 -2.883,4.545 -1.298,3.662 -1.872,7.607 -3.39,11.158 -2.897,6.773 -6.884,12.724 -15.142,13.54 -8.362,0.826 -15.003,-2.186 -18.851,-9.845 -3.387,-6.74 -7.249,-13.455 -9.232,-20.642 -4.127,-14.966 -7.068,-30.256 -10.645,-45.377 -4.723,-19.966 -9.41,-39.944 -14.508,-59.815 -1.38,-5.377 -4.014,-10.47 -6.46,-15.505 -0.572,-1.18 -2.814,-2.312 -4.113,-2.141 -1.073,0.141 -2.38,2.121 -2.712,3.497 -0.705,2.919 -1.02,5.966 -1.185,8.978 -1.445,26.317 1.459,52.308 5.706,78.227 1.642,10.017 2.549,20.154 3.783,30.237 1.735,14.166 2.689,28.485 5.425,42.454 2.401,12.253 7.302,23.996 10.174,36.182 3.017,12.798 5.247,25.808 7.237,38.815 1.66,10.85 -6.836,15.228 -16.423,10.651 -7.163,-3.419 -14.098,-7.64 -20.4,-12.464 -12.428,-9.511 -22.923,-20.877 -32.221,-33.641 -14.764,-20.269 -30.914,-39.528 -43.024,-61.656 -4.195,-7.666 -8.767,-15.126 -13.167,-22.68 -0.384,0.162 -0.769,0.324 -1.152,0.486 1.109,3.414 2.036,6.901 3.358,10.231 12.991,32.731 26.347,65.322 38.941,98.205 5.049,13.183 7.494,27.217 6.394,41.444 -1.006,13.019 -6.686,23.187 -18.809,23.336 -23.812,0.293 -43.491,-9.834 -59.967,-26.469 -2.939,-2.967 -1.094,-5.921 2.365,-7.876 0.857,0.67 1.852,1.197 2.513,2 10.458,12.709 24.4,19.694 39.79,24.304 18.358,5.5 26.632,-0.733 27.406,-19.815 0.786,-19.343 -5.234,-37.165 -11.944,-54.684 -7.65,-19.972 -16.684,-39.408 -24.765,-59.22 -6.6,-16.18 -12.801,-32.526 -18.906,-48.9 -1.428,-3.828 -3.897,-7.918 -0.956,-12.571 5.316,0.485 8.513,3.663 11.017,7.892 12.894,21.771 26.09,43.367 38.62,65.345 13.325,23.371 29.611,44.332 49.848,61.959 7.741,6.743 16.849,12.025 25.722,17.323 5.467,3.264 8.124,1.422 7.882,-4.84 -0.208,-5.388 -0.52,-10.885 -1.764,-16.101 -6.513,-27.311 -14.447,-54.271 -17.175,-82.427 -1.54,-15.9 -5.039,-31.601 -7.139,-47.46 -2.357,-17.793 -4.918,-35.621 -5.894,-53.516 -0.702,-12.851 0.356,-25.924 1.959,-38.732 1.012,-8.091 9.326,-10.656 14.974,-4.82 4.52,4.67 9.166,10.484 10.69,16.56 5.678,22.63 10.467,45.506 14.852,68.431 3.212,16.786 5.69,33.715 12.587,49.5 1.975,4.518 4.651,8.848 7.646,12.776 5.339,7.002 13.662,6.317 17.753,-1.35 1.922,-3.6 3.181,-7.562 4.633,-11.401 1.37,-3.63 1.919,-7.804 4.099,-10.821 1.785,-2.471 5.313,-4.545 8.313,-4.941 C -3.924,-5.449 -0.731,-2.243 0,0" /></g><g
           transform="translate(502.0996,145.5952)"
           id="g28"><path
             id="path30"
             style="fill:#000000;fill-opacity:1;fill-rule:nonzero;stroke:none"
             d="m 0,0 c 4.357,-1.43 6.6,1.026 7.782,4.689 2.782,8.622 5.467,17.277 8.023,25.969 1.1,3.743 -0.539,5.579 -4.506,5.973 -2.371,0.235 -4.964,0.959 -6.903,2.278 -4.531,3.079 -7.756,2.32 -9.195,-2.901 -0.685,-2.487 -0.572,-5.199 -1.303,-7.666 -2.422,-8.185 -2.506,-8.16 5.763,-12.128 C -0.981,13.24 -1.346,10.486 -2.195,7.892 -3.259,4.646 -4.637,1.522 0,0" /></g><g
           transform="translate(538.166,170.0493)"
           id="g32"><path
             id="path34"
             style="fill:#000000;fill-opacity:1;fill-rule:nonzero;stroke:none"
             d="m 0,0 c -0.379,0.127 -0.756,0.254 -1.135,0.381 -0.318,1.858 -0.636,3.716 -1.023,5.973 -4.856,1.364 -6.998,-0.917 -6.671,-4.746 0.912,-10.673 2.13,-21.332 3.727,-31.921 0.252,-1.674 3.1,-2.957 4.748,-4.42 1.432,1.874 3.598,3.557 4.145,5.662 1.123,4.33 0.987,8.985 2.087,13.324 1.578,6.23 4.153,12.219 5.554,18.478 0.51,2.282 -1.125,5.043 -1.782,7.586 C 7.27,8.919 4.521,7.891 2.629,6.004 1.189,4.568 0.836,2.042 0,0" /></g></g></g></g></svg>